<svg xmlns="http://www.w3.org/2000/svg" viewBox="0 0 32 32" width="48" height="48" shape-rendering="crispEdges">
  <!-- Grass Top -->
  <rect x="2" y="2" width="28" height="8" fill="#5b8c32"/>
  <!-- Pixel grass uneven fringe -->
  <rect x="2" y="10" width="4" height="4" fill="#466e24"/>
  <rect x="6" y="10" width="4" height="2" fill="#5b8c32"/>
  <rect x="10" y="10" width="4" height="5" fill="#466e24"/>
  <rect x="14" y="10" width="5" height="3" fill="#5b8c32"/>
  <rect x="19" y="10" width="4" height="6" fill="#466e24"/>
  <rect x="23" y="10" width="3" height="2" fill="#5b8c32"/>
  <rect x="26" y="10" width="4" height="4" fill="#466e24"/>
  <!-- Dirt Base -->
  <rect x="2" y="10" width="28" height="18" fill="#866043"/>
  <!-- Dirt pixel noise -->
  <rect x="4" y="15" width="3" height="3" fill="#573d26"/>
  <rect x="12" y="17" width="4" height="3" fill="#6d4e33"/>
  <rect x="20" y="18" width="3" height="4" fill="#573d26"/>
  <rect x="8" y="22" width="4" height="3" fill="#6d4e33"/>
  <rect x="24" y="22" width="3" height="3" fill="#573d26"/>
  <rect x="16" y="24" width="4" height="3" fill="#6d4e33"/>
  <!-- 3D Block Edge Shading -->
  <rect x="1" y="1" width="30" height="1" fill="#7dc043"/>
  <rect x="1" y="1" width="1" height="30" fill="#7dc043"/>
  <rect x="31" y="1" width="1" height="30" fill="#3d2716"/>
  <rect x="1" y="31" width="31" height="1" fill="#3d2716"/>
</svg>
